<?xml version="1.0" standalone="no"?>
<!DOCTYPE svg PUBLIC "-//W3C//DTD SVG 20010904//EN"
 "http://www.w3.org/TR/2001/REC-SVG-20010904/DTD/svg10.dtd">
<svg version="1.0" xmlns="http://www.w3.org/2000/svg"
 width="300.000000pt" height="351.000000pt" viewBox="0 0 300.000000 351.000000"
 preserveAspectRatio="xMidYMid meet">
<metadata>
Created by potrace 1.10, written by Peter Selinger 2001-2011
</metadata>
<g transform="translate(0.000000,351.000000) scale(0.100000,-0.100000)"
fill="#a3009e" stroke="none">
<path d="M280 3130 c0 -3 -1 -521 -3 -1152 l-2 -1148 1143 -2 c629 -2 1148 0
1153 3 6 3 9 467 9 1152 l1 1147 -1151 3 c-632 1 -1150 0 -1150 -3z m315 -69
c7 -12 -30 -24 -52 -17 -10 3 -24 2 -31 -3 -8 -5 15 -11 61 -15 76 -7 1779 2
1786 10 2 2 -140 4 -317 4 -313 0 -358 3 -346 21 8 14 767 12 798 -2 21 -10
26 -21 31 -73 4 -33 4 -506 1 -1051 -3 -545 -6 -997 -6 -1006 0 -9 -15 -24
-32 -32 -29 -14 -157 -16 -1050 -17 -951 -1 -1019 1 -1057 17 -32 14 -42 24
-46 48 -3 16 -4 495 -3 1063 3 1010 3 1034 22 1048 23 16 231 20 241 5z m450
0 c7 -13 -30 -24 -55 -16 -28 9 -15 25 20 25 16 0 31 -4 35 -9z m539 0 c10
-15 -23 -21 -124 -21 -101 0 -134 6 -124 21 3 5 59 9 124 9 65 0 121 -4 124
-9z"/>
<path d="M567 3002 c-82 -3 -88 -4 -99 -27 -6 -14 -14 -25 -18 -25 -4 0 -19
-11 -33 -24 l-25 -23 0 -909 c0 -604 4 -916 11 -929 5 -11 20 -29 32 -40 11
-11 24 -28 27 -36 9 -23 158 -31 415 -24 313 9 397 15 383 29 -8 8 -125 12
-403 15 l-393 3 1 232 c0 127 -2 362 -5 521 -2 160 -1 489 3 733 l6 443 962 0
962 0 1 -966 1 -965 -391 0 c-376 0 -454 -3 -454 -20 0 -16 51 -19 365 -26
355 -8 473 -2 483 24 3 9 19 28 34 42 16 15 33 42 38 61 10 33 4 1756 -6 1806
-2 13 -18 30 -34 38 -17 9 -30 22 -30 30 0 8 -8 19 -18 24 -16 9 -1599 20
-1815 13z"/>
<path d="M1242 2839 c-169 -28 -338 -115 -471 -243 -120 -116 -199 -250 -242
-411 -30 -113 -38 -342 -15 -434 42 -163 61 -210 133 -324 25 -40 154 -177
167 -177 14 0 4 19 -29 56 -74 82 -164 238 -199 344 -101 306 -29 633 192 871
234 253 587 342 922 233 62 -20 168 -72 207 -100 17 -13 37 -24 43 -24 6 0 13
-7 16 -15 4 -8 10 -15 15 -15 6 0 23 -14 39 -30 30 -30 39 -60 20 -60 -5 0
-10 5 -10 10 0 6 -4 10 -9 10 -6 0 -30 14 -54 30 -25 17 -49 30 -53 30 -5 1
-27 9 -49 20 -22 11 -50 19 -63 20 -12 0 -31 5 -42 12 -10 7 -22 10 -25 6 -3
-3 -6 -75 -6 -159 l-1 -154 218 -5 219 -5 12 -49 c7 -27 19 -64 28 -82 8 -17
15 -37 15 -44 0 -9 -62 -11 -245 -8 l-246 3 0 -519 c0 -285 3 -521 5 -524 7
-6 95 36 133 64 17 13 35 24 38 24 11 0 85 61 137 113 98 98 177 226 212 342
10 33 23 71 29 85 6 14 13 97 15 184 4 166 -1 203 -49 348 -18 55 -60 139 -84
168 -7 8 -14 20 -16 26 -15 44 -179 210 -245 249 -27 16 -51 31 -54 35 -3 3
-30 16 -60 29 -30 12 -64 26 -75 31 -90 42 -333 62 -473 39z m681 -301 c40
-16 87 -52 87 -68 0 -5 13 -10 29 -10 21 0 30 -6 35 -22 3 -13 1 -27 -3 -31
-15 -15 -172 -20 -219 -8 -53 15 -77 48 -69 97 9 52 24 67 66 61 20 -3 53 -11
74 -19z m329 -571 c3 -51 1 -108 -4 -127 -5 -19 -13 -55 -17 -80 -10 -47 -32
-114 -56 -167 -8 -17 -15 -36 -15 -41 0 -6 -3 -12 -7 -14 -12 -5 -53 -66 -53
-77 0 -11 -78 -98 -119 -135 -14 -11 -32 -28 -40 -36 -23 -21 -69 -50 -79 -50
-6 0 -12 9 -15 21 -7 25 -27 16 -27 -12 0 -14 -6 -19 -17 -17 -17 3 -18 31
-21 383 -1 209 0 389 3 400 3 11 12 29 20 40 15 18 31 20 213 25 152 4 201 2
213 -8 13 -10 18 -36 21 -105z"/>
<path d="M1465 2673 c-191 -47 -282 -87 -405 -180 -154 -115 -280 -307 -329
-500 -23 -92 -29 -315 -10 -388 6 -22 14 -56 18 -75 5 -19 14 -48 21 -65 38
-89 56 -125 62 -125 5 0 8 -5 8 -11 0 -6 9 -22 20 -36 11 -14 22 -39 25 -57 5
-25 18 -38 70 -69 35 -20 70 -37 79 -37 8 0 17 -4 20 -9 8 -12 101 -42 166
-52 84 -14 344 -29 352 -21 5 5 9 255 10 558 l1 549 -251 -4 c-248 -3 -252 -3
-252 17 0 11 6 33 14 49 8 15 20 47 27 71 21 73 10 70 244 62 116 -4 213 -5
217 -3 4 2 6 79 5 171 l-2 167 -25 1 c-14 1 -52 -5 -85 -13z m-20 -113 c24 0
47 -30 35 -45 -6 -8 -17 -12 -23 -9 -7 2 -18 -9 -24 -26 -10 -28 -15 -30 -60
-30 -39 0 -54 5 -72 23 -13 15 -19 30 -15 40 3 10 7 17 8 17 1 0 26 9 56 20
30 10 61 17 68 15 8 -3 20 -5 27 -5z m-449 -298 c6 -4 17 -32 25 -62 14 -61
35 -100 53 -100 6 -1 29 -9 51 -20 33 -16 62 -19 166 -20 78 0 129 -4 136 -11
6 -6 22 -17 35 -23 l23 -12 -1 -389 c-1 -215 -5 -405 -9 -424 -4 -19 -20 -45
-34 -57 -23 -20 -34 -22 -91 -17 -36 2 -69 8 -75 13 -5 4 -30 11 -55 15 -25 4
-60 15 -78 26 -18 10 -40 19 -48 19 -8 0 -22 9 -31 20 -10 11 -21 20 -26 20
-10 0 -89 62 -131 103 -27 27 -28 31 -18 61 16 43 16 41 -16 73 -23 22 -31 43
-41 102 -6 41 -16 80 -21 86 -14 17 -15 190 -1 245 6 25 11 57 11 71 0 15 20
57 45 93 25 37 45 76 45 87 0 11 11 31 25 45 14 14 25 31 25 38 0 23 16 32 36
18z"/>
<path d="M174 726 c-17 -13 -19 -30 -22 -184 -2 -103 1 -185 7 -210 10 -36 16
-42 45 -48 43 -8 91 2 108 23 10 12 13 63 13 203 0 171 -2 190 -19 209 -23 25
-101 29 -132 7z m100 -38 c13 -18 16 -53 16 -170 0 -80 -4 -158 -9 -171 -13
-34 -38 -40 -61 -17 -18 18 -20 34 -20 181 0 91 4 169 10 180 14 26 45 24 64
-3z"/>
<path d="M797 734 c-3 -4 -2 -15 4 -26 7 -13 10 -92 7 -219 -3 -214 -3 -216
48 -203 25 6 31 18 14 29 -13 8 -13 392 0 400 13 8 80 -14 80 -26 0 -5 7 -9
15 -9 10 0 15 10 15 30 l0 30 -88 0 c-49 0 -92 -3 -95 -6z"/>
<path d="M1767 734 c-3 -4 0 -16 8 -28 15 -23 17 -94 3 -113 -6 -7 -6 -22 -2
-35 10 -33 5 -207 -7 -229 -11 -22 -39 -25 -57 -7 -16 16 -16 221 0 248 15 24
9 31 -21 23 -32 -8 -41 -41 -41 -153 0 -150 11 -164 127 -153 61 6 64 7 56 27
-4 12 -7 112 -6 224 l2 202 -28 0 c-15 0 -30 -3 -34 -6z"/>
<path d="M2090 726 c0 -8 4 -17 9 -21 5 -3 10 -89 10 -191 1 -106 5 -194 11
-205 6 -10 22 -22 35 -25 34 -8 85 14 85 37 0 23 -16 33 -24 14 -3 -8 -14 -15
-24 -15 -40 0 -43 20 -40 224 l3 196 -32 0 c-22 0 -33 -5 -33 -14z"/>
<path d="M2620 731 c-83 -6 -84 -6 -36 -13 27 -5 66 -8 88 -8 55 0 78 -15 78
-50 0 -48 17 -43 24 7 11 83 29 76 -154 64z"/>
<path d="M566 720 c7 -7 19 -7 35 -1 23 9 22 10 -10 10 -24 1 -32 -2 -25 -9z"/>
<path d="M1153 723 c9 -2 25 -2 35 0 9 3 1 5 -18 5 -19 0 -27 -2 -17 -5z"/>
<path d="M1270 726 c0 -10 28 -13 41 -5 10 6 7 9 -13 9 -16 0 -28 -2 -28 -4z"/>
<path d="M1540 726 c0 -10 28 -13 41 -5 10 6 7 9 -13 9 -16 0 -28 -2 -28 -4z"/>
<path d="M2264 675 c-8 -19 3 -35 25 -35 26 0 44 23 29 38 -17 17 -47 15 -54
-3z"/>
<path d="M486 587 c5 -12 9 -84 9 -160 l0 -138 35 3 c26 2 34 7 30 18 -2 8 -7
67 -10 130 -7 129 -10 140 -46 157 -25 11 -26 11 -18 -10z"/>
<path d="M1547 565 c11 -34 14 -71 11 -143 -3 -53 -7 -104 -9 -112 -3 -11 6
-16 35 -18 34 -3 38 -1 31 15 -4 10 -10 74 -14 142 l-6 125 -32 19 -32 18 16
-46z"/>
<path d="M2690 575 c16 -29 20 -54 20 -138 0 -63 -4 -107 -11 -114 -22 -22 -2
-43 41 -43 33 0 40 3 40 19 0 11 -4 23 -10 26 -6 4 -10 57 -10 126 l0 119 -32
20 c-50 30 -61 26 -38 -15z"/>
<path d="M385 588 c-2 -7 -6 -69 -7 -138 -2 -69 -7 -133 -12 -142 -7 -16 -3
-18 34 -18 39 0 42 2 35 23 -14 42 -17 189 -5 230 13 44 13 42 -18 51 -14 5
-24 3 -27 -6z"/>
<path d="M1201 591 c-10 -6 -11 -13 -3 -27 6 -11 8 -55 5 -109 -6 -103 6 -160
37 -168 11 -3 46 -3 77 0 l58 5 -2 146 c-1 122 -4 147 -18 155 -21 11 -51 -11
-35 -27 16 -16 13 -192 -5 -226 -17 -34 -19 -34 -46 -19 -19 10 -20 19 -18
133 3 144 -5 165 -50 137z"/>
<path d="M1439 591 c0 -3 -2 -62 -3 -131 -1 -69 -6 -135 -10 -146 -7 -19 -3
-22 26 -27 44 -7 51 3 39 49 -10 42 -8 195 4 230 6 18 2 22 -24 26 -17 2 -31
2 -32 -1z"/>
<path d="M2269 593 c-1 -5 0 -63 1 -130 1 -77 -3 -129 -10 -143 -15 -27 -9
-33 31 -32 39 1 46 8 31 32 -8 13 -12 64 -12 144 0 104 -3 125 -16 130 -20 8
-24 8 -25 -1z"/>
<path d="M2588 470 c3 -89 1 -135 -7 -143 -23 -23 -12 -37 30 -37 39 0 41 2
33 23 -14 40 -16 207 -3 239 14 33 14 34 -26 42 l-31 7 4 -131z"/>
<path d="M612 570 c-15 -25 -16 -220 -1 -254 12 -26 35 -36 86 -36 40 0 75 34
71 69 -4 33 -26 38 -33 9 -15 -59 -79 -55 -88 4 -6 42 -2 154 7 196 6 27 5 32
-11 32 -10 0 -24 -9 -31 -20z"/>
<path d="M690 582 c0 -4 5 -13 11 -19 13 -13 16 -81 5 -105 -10 -22 19 -36 43
-21 12 8 15 23 12 64 -2 30 -7 62 -12 72 -10 17 -59 25 -59 9z"/>
<path d="M996 565 c-23 -35 -23 -215 0 -250 30 -46 119 -42 145 7 16 29 13
222 -4 249 -7 11 -22 19 -34 19 -25 0 -29 -10 -13 -26 7 -7 10 -55 8 -124 -3
-94 -6 -115 -20 -124 -33 -21 -43 7 -43 122 0 59 4 117 8 130 7 18 5 22 -11
22 -11 0 -27 -11 -36 -25z"/>
<path d="M1980 581 c0 -6 5 -13 10 -16 13 -8 13 -58 -1 -72 -8 -8 -8 -13 0
-17 12 -8 15 -96 5 -134 -9 -34 -55 -27 -68 10 -8 22 -5 36 12 69 12 22 22 43
22 46 0 11 -47 -10 -62 -29 -21 -24 -25 -120 -5 -136 24 -19 59 -24 83 -11 20
10 29 10 48 -1 25 -13 56 -8 56 9 0 6 -9 15 -20 21 -18 10 -20 21 -20 121 0
61 -5 119 -10 130 -11 19 -50 27 -50 10z"/>
<path d="M2380 566 c-18 -35 -20 -202 -3 -242 16 -35 51 -48 103 -38 48 10 60
40 60 156 0 112 -13 148 -52 148 -16 0 -18 -4 -12 -17 5 -10 9 -68 9 -130 0
-122 -8 -143 -44 -124 -19 11 -21 20 -21 123 0 90 3 115 17 130 15 17 15 18
-14 18 -21 0 -33 -7 -43 -24z"/>
<path d="M1884 555 c-8 -34 1 -55 25 -55 26 0 34 14 26 50 -8 38 -42 41 -51 5z"/>
<path d="M912 532 l-24 -18 26 -17 26 -17 0 35 c0 19 -1 35 -2 35 -2 0 -14 -9
-26 -18z"/>
</g>
</svg>
